<svg width="92" height="24" viewBox="0 0 92 24" fill="none" xmlns="http://www.w3.org/2000/svg"> <path d="M12.4202 14.3351C12.8719 14.1766 13.1765 13.728 13.1516 13.2581C13.1266 12.7882 12.7788 12.4244 12.3166 12.3846C11.2996 12.2971 10.5743 12.1373 10.075 11.9696C10.5111 11.7829 11.0542 11.5686 11.6944 11.3315C13.5996 10.6259 16.2725 9.75163 19.3185 8.84424C25.4144 7.02835 32.9316 5.10164 38.6778 4.1398C53.8301 1.60345 70.2 1.92498 74.51 2.00964C74.5721 2.01086 74.6317 2.01203 74.6888 2.01314C74.6558 2.07538 74.6257 2.14646 74.6028 2.22645C74.5115 2.54644 74.5817 2.84501 74.7255 3.05591C74.8447 3.23073 74.992 3.31653 75.0593 3.35148C75.196 3.42245 75.3232 3.44407 75.3612 3.4505C75.4193 3.46037 75.4733 3.46518 75.5143 3.46791C76.7545 3.55067 77.8234 3.62751 78.7403 3.6991C78.7002 3.7349 78.6596 3.7752 78.6203 3.82041C78.4677 3.99582 78.3035 4.28456 78.3186 4.64967C78.3334 5.00723 78.5224 5.23529 78.5774 5.30049C78.6598 5.39811 78.7511 5.47569 78.8211 5.53058C78.9646 5.64316 79.1423 5.75505 79.3143 5.85688C79.5773 6.01251 79.9082 6.19118 80.2358 6.36809C80.3395 6.42412 80.443 6.47997 80.5438 6.53486C80.7988 6.67364 81.0413 6.80837 81.257 6.93581C81.2497 6.93859 81.2423 6.94138 81.2349 6.94419C81.1624 6.97167 81.0832 7.00101 81.0006 7.03161C80.7452 7.12625 80.4575 7.2329 80.2337 7.33367C80.0866 7.39994 79.8879 7.4974 79.7114 7.63205C79.589 7.72544 79.1391 8.09066 79.1646 8.70516C79.1659 8.73812 79.1689 8.77087 79.1735 8.80329C79.2314 9.21168 79.5076 9.4183 79.568 9.46352L79.5688 9.46413C79.671 9.54062 79.7758 9.59146 79.8473 9.62299C79.9969 9.68897 80.1754 9.74512 80.35 9.7936C80.7087 9.89322 81.1951 9.99924 81.7463 10.1082C82.6509 10.2871 83.7962 10.4866 84.9709 10.6913C85.2343 10.7372 85.4992 10.7834 85.7632 10.8296C87.1792 11.0776 88.5703 11.3281 89.6232 11.5609C89.456 11.6356 89.2905 11.7121 89.1506 11.7844C89.0078 11.8581 88.8211 11.962 88.6572 12.0962C88.5592 12.1763 88.1176 12.5431 88.1425 13.1453C88.1464 13.2394 88.1634 13.3164 88.1674 13.3347L88.1678 13.3365C88.1747 13.3681 88.1823 13.3975 88.1884 13.4202C88.2009 13.4664 88.2165 13.5188 88.2325 13.5709C88.2649 13.6766 88.3096 13.815 88.3601 13.9703C88.3798 14.0309 88.4006 14.0947 88.4223 14.1612C88.5138 14.4415 88.6211 14.7705 88.729 15.1138C88.8222 15.4102 88.9139 15.7108 88.9939 15.9919C88.4656 15.9413 87.7801 15.86 86.9454 15.7545C86.367 15.6814 85.7215 15.5973 85.0157 15.5054C83.0341 15.2473 80.5775 14.9273 77.7968 14.6149C70.2524 13.7674 60.2407 12.9656 50.4827 13.5724C50.4657 13.5734 50.4488 13.5749 50.4319 13.5769C36.7825 15.1293 18.528 19.5432 15.3129 20.5999C13.8465 21.0818 12.2671 21.5594 10.9152 21.9304C11.0576 21.828 11.2009 21.7253 11.343 21.6235C11.8516 21.259 12.3439 20.9063 12.7206 20.6214C12.9959 20.4132 13.2711 20.1959 13.4548 20.0128C13.5041 19.9636 13.5654 19.8987 13.6241 19.8227C13.6687 19.7649 13.7808 19.6146 13.8436 19.403C13.9214 19.141 13.9378 18.6724 13.5533 18.3503C13.4875 18.2952 13.4196 18.2537 13.3532 18.2223C14.1781 17.9483 15.0086 17.646 15.6596 17.3271C16.0891 17.1168 16.3395 16.6437 16.2629 16.1875C16.1863 15.7313 15.8031 15.4135 15.3397 15.4217C13.1678 15.4606 9.40861 16.262 6.29921 16.997C6.25896 17.0065 6.21879 17.016 6.17871 17.0255C7.96486 16.1123 10.1134 15.1446 12.4202 14.3351ZM9.20218 11.5117C9.20271 11.5117 9.207 11.5164 9.21347 11.5258C9.20488 11.5164 9.20165 11.5117 9.20218 11.5117ZM9.01988 12.4946C9.01841 12.4958 9.01762 12.4965 9.0176 12.4965C9.01757 12.4965 9.0183 12.4958 9.01988 12.4946ZM75.8801 3.35072C75.8802 3.35067 75.8804 3.35062 75.8806 3.35057L75.8801 3.35072ZM90.0194 16.0446C90.0192 16.0447 90.0159 16.0452 90.0094 16.0458C90.0162 16.0448 90.0197 16.0444 90.0194 16.0446ZM12.7743 20.1389C12.7719 20.1389 12.7686 20.139 12.7645 20.1391C12.7686 20.139 12.7726 20.1389 12.7767 20.1388L12.7743 20.1389ZM81.9805 7.44359C81.9796 7.44354 81.9729 7.43658 81.9631 7.42286C81.9764 7.43677 81.9814 7.44364 81.9805 7.44359ZM89.6578 0.894352C89.6631 0.891892 89.6661 0.890835 89.6663 0.890924C89.6665 0.891014 89.6638 0.892229 89.6578 0.894352ZM88.5058 1.13274C88.3012 1.20712 88.0706 1.32483 87.8638 1.51771C87.8587 1.51732 87.8532 1.51671 87.8472 1.51582C87.9059 1.46999 87.9667 1.42469 88.0285 1.3814C88.2271 1.24226 88.3866 1.1592 88.493 1.12355C88.4972 1.12662 88.5015 1.12968 88.5058 1.13274Z" fill="#FFE713" stroke="#FFE713" stroke-width="2" stroke-linecap="round" stroke-linejoin="round"/> </svg>
